<svg width="445" height="280" viewBox="0 0 445 280" fill="none" xmlns="http://www.w3.org/2000/svg">
<path fill-rule="evenodd" clip-rule="evenodd" d="M341.695 127.875C345.559 125.154 348.084 120.658 348.084 115.573C348.084 107.269 341.352 100.538 333.048 100.538C324.744 100.538 318.013 107.269 318.013 115.573C318.013 120.658 320.537 125.154 324.401 127.875H320.514L296.143 150.428V166.83L320.514 146.327V165.463L307.284 201.685H325.331L334.29 179.722L344.886 201.685H360.901L347.671 165.463V146.327L369.953 165.463V149.061L344.886 127.875H341.695Z" fill="white"/>
<path fill-rule="evenodd" clip-rule="evenodd" d="M47.2914 128.649C51.1554 125.928 53.6798 121.433 53.6798 116.347C53.6798 108.044 46.9482 101.312 38.6444 101.312C30.3406 101.312 23.609 108.044 23.609 116.347C23.609 121.433 26.1334 125.928 29.9974 128.649H26.1106L1.73926 151.202V167.605L26.1106 147.102V166.238L12.8804 202.459H30.9275L39.8863 180.496L50.4819 202.459H66.4974L53.2672 166.238V147.102L75.5496 166.238V149.835L50.4819 128.649H47.2914Z" fill="white"/>
<path fill-rule="evenodd" clip-rule="evenodd" d="M119.153 27.3371C123.017 24.6161 125.542 20.1206 125.542 15.0354C125.542 6.7316 118.81 0 110.506 0C102.202 0 95.4708 6.7316 95.4708 15.0354C95.4708 20.1206 97.9952 24.6161 101.859 27.3371H97.9724L73.6011 49.8903V66.2926L97.9724 45.7897V64.9257L84.7423 101.147H102.789L111.748 79.184L122.344 101.147H138.359L125.129 64.9257V45.7897L147.411 64.9257V48.5234L122.344 27.3371H119.153Z" fill="white"/>
<path fill-rule="evenodd" clip-rule="evenodd" d="M45.5522 28.112C49.4162 25.391 51.9406 20.8955 51.9406 15.8103C51.9406 7.5065 45.209 0.774902 36.9051 0.774902C28.6013 0.774902 21.8697 7.5065 21.8697 15.8103C21.8697 20.8955 24.3941 25.391 28.2581 28.112H24.3713L0 50.6652V67.0675L24.3713 46.5646V65.7006L11.1412 101.922H29.1883L38.1471 79.9589L48.7427 101.922H64.7581L51.528 65.7006V46.5646L73.8104 65.7006V49.2983L48.7427 28.112H45.5522Z" fill="white"/>
<path fill-rule="evenodd" clip-rule="evenodd" d="M192.754 28.112C196.618 25.391 199.143 20.8955 199.143 15.8103C199.143 7.5065 192.411 0.774902 184.107 0.774902C175.803 0.774902 169.072 7.5065 169.072 15.8103C169.072 20.8955 171.596 25.391 175.46 28.112H171.573L147.202 50.6652V67.0675L171.573 46.5646V65.7006L158.343 101.922H176.39L185.349 79.9589L195.945 101.922H211.96L198.73 65.7006V46.5646L221.013 65.7006V49.2983L195.945 28.112H192.754Z" fill="white"/>
<path fill-rule="evenodd" clip-rule="evenodd" d="M266.355 27.3371C270.219 24.6161 272.744 20.1206 272.744 15.0354C272.744 6.7316 266.012 0 257.708 0C249.405 0 242.673 6.7316 242.673 15.0354C242.673 20.1206 245.197 24.6161 249.061 27.3371H245.175L220.803 49.8903V66.2926L245.175 45.7897V64.9257L231.944 101.147H249.992L258.95 79.184L269.546 101.147H285.561L272.331 64.9257V45.7897L294.614 64.9257V48.5234L269.546 27.3371H266.355Z" fill="white"/>
<path fill-rule="evenodd" clip-rule="evenodd" d="M412.972 127.1C416.836 124.379 419.361 119.883 419.361 114.798C419.361 106.494 412.629 99.7627 404.325 99.7627C396.021 99.7627 389.29 106.494 389.29 114.798C389.29 119.883 391.814 124.379 395.678 127.1H391.791L367.42 149.653V166.055L391.791 145.552V164.688L378.561 200.91H396.608L405.567 178.947L416.163 200.91H432.178L418.948 164.688V145.552L441.23 164.688V148.286L416.163 127.1H412.972Z" fill="white"/>
<path fill-rule="evenodd" clip-rule="evenodd" d="M341.506 27.3371C345.37 24.6161 347.894 20.1206 347.894 15.0354C347.894 6.7316 341.163 0 332.859 0C324.555 0 317.823 6.7316 317.823 15.0354C317.823 20.1206 320.348 24.6161 324.212 27.3371H320.325L295.954 49.8903V66.2926L320.325 45.7897V64.9257L307.095 101.147H325.142L334.101 79.184L344.696 101.147H360.712L347.482 64.9257V45.7897L369.764 64.9257V48.5234L344.696 27.3371H341.506Z" fill="white"/>
<path fill-rule="evenodd" clip-rule="evenodd" d="M416.656 27.3371C420.52 24.6161 423.045 20.1206 423.045 15.0354C423.045 6.7316 416.313 0 408.009 0C399.705 0 392.974 6.7316 392.974 15.0354C392.974 20.1206 395.498 24.6161 399.362 27.3371H395.475L371.104 49.8903V66.2926L395.475 45.7897V64.9257L382.245 101.147H400.292L409.251 79.184L419.847 101.147H435.862L422.632 64.9257V45.7897L444.914 64.9257V48.5234L419.847 27.3371H416.656Z" fill="white"/>
<path fill-rule="evenodd" clip-rule="evenodd" d="M268.094 127.875C271.958 125.154 274.483 120.658 274.483 115.573C274.483 107.269 267.751 100.538 259.447 100.538C251.143 100.538 244.412 107.269 244.412 115.573C244.412 120.658 246.936 125.154 250.8 127.875H246.913L222.542 150.428V166.83L246.913 146.327V165.463L233.683 201.685H251.73L260.689 179.722L271.285 201.685H287.3L274.07 165.463V146.327L296.352 165.463V149.061L271.285 127.875H268.094Z" fill="white"/>
<path fill-rule="evenodd" clip-rule="evenodd" d="M120.892 128.649C124.756 125.928 127.281 121.433 127.281 116.347C127.281 108.044 120.549 101.312 112.245 101.312C103.942 101.312 97.21 108.044 97.21 116.347C97.21 121.433 99.7345 125.928 103.598 128.649H99.7117L75.3403 151.202V167.605L99.7117 147.102V166.238L86.4815 202.459H104.529L113.487 180.496L124.083 202.459H140.098L126.868 166.238V147.102L149.151 166.238V149.835L124.083 128.649H120.892Z" fill="white"/>
<path fill-rule="evenodd" clip-rule="evenodd" d="M194.494 127.875C198.358 125.154 200.882 120.658 200.882 115.573C200.882 107.269 194.15 100.538 185.847 100.538C177.543 100.538 170.811 107.269 170.811 115.573C170.811 120.658 173.336 125.154 177.2 127.875H173.313L148.941 150.428V166.83L173.313 146.327V165.463L160.083 201.685H178.13L187.088 179.722L197.684 201.685H213.7L200.469 165.463V146.327L222.752 165.463V149.061L197.684 127.875H194.494Z" fill="white"/>
<path d="M22.7016 228.427V250.245H18.0886V232.805H17.9608L12.9644 235.938V231.847L18.3656 228.427H22.7016ZM36.4418 250.725C34.6094 250.717 33.0327 250.266 31.7117 249.372C30.3978 248.477 29.3857 247.18 28.6755 245.483C27.9723 243.786 27.6243 241.744 27.6314 239.357C27.6314 236.978 27.983 234.95 28.6861 233.274C29.3964 231.598 30.4084 230.323 31.7223 229.45C33.0434 228.569 34.6165 228.129 36.4418 228.129C38.2671 228.129 39.8367 228.569 41.1506 229.45C42.4716 230.33 43.4873 231.609 44.1975 233.285C44.9077 234.954 45.2593 236.978 45.2522 239.357C45.2522 241.751 44.8971 243.796 44.1868 245.494C43.4837 247.191 42.4752 248.487 41.1613 249.382C39.8473 250.277 38.2742 250.725 36.4418 250.725ZM36.4418 246.9C37.6918 246.9 38.6897 246.271 39.4354 245.014C40.1812 243.757 40.5505 241.872 40.5434 239.357C40.5434 237.703 40.3729 236.325 40.032 235.224C39.6982 234.123 39.2223 233.296 38.6044 232.742C37.9937 232.188 37.2728 231.911 36.4418 231.911C35.1989 231.911 34.2046 232.532 33.4589 233.775C32.7131 235.018 32.3367 236.879 32.3296 239.357C32.3296 241.033 32.4965 242.433 32.8303 243.555C33.1712 244.67 33.6506 245.508 34.2685 246.069C34.8864 246.623 35.6108 246.9 36.4418 246.9ZM58.7793 237.536V241.136H48.8291V237.536H58.7793ZM72.0961 228.427V250.245H67.4832V232.805H67.3553L62.3589 235.938V231.847L67.7602 228.427H72.0961ZM77.2816 250.245V246.921L85.048 239.73C85.7085 239.091 86.2625 238.516 86.7099 238.004C87.1645 237.493 87.5089 236.992 87.7433 236.502C87.9777 236.005 88.0949 235.469 88.0949 234.894C88.0949 234.254 87.9493 233.704 87.6581 233.242C87.3669 232.774 86.9692 232.415 86.4649 232.166C85.9606 231.911 85.3889 231.783 84.7497 231.783C84.0821 231.783 83.4997 231.918 83.0025 232.188C82.5054 232.457 82.1218 232.845 81.852 233.349C81.5821 233.853 81.4471 234.453 81.4471 235.149H77.0686C77.0686 233.722 77.3917 232.482 78.038 231.431C78.6843 230.38 79.5899 229.567 80.7547 228.992C81.9194 228.416 83.2618 228.129 84.7816 228.129C86.3441 228.129 87.7042 228.406 88.8619 228.96C90.0267 229.506 90.9322 230.266 91.5785 231.239C92.2248 232.212 92.548 233.328 92.548 234.585C92.548 235.408 92.3846 236.222 92.0579 237.024C91.7383 237.827 91.1666 238.718 90.3427 239.698C89.5189 240.671 88.3576 241.84 86.8591 243.203L83.6737 246.325V246.474H92.8356V250.245H77.2816Z" fill="black"/>
<path d="M16.7122 276.12V275.041L23.1966 264.7H23.9921V266.511H23.4026L18.1966 274.835V274.927H26.698V276.12H16.7122ZM23.502 279.245V275.779V275.282V264.7H24.7662V279.245H23.502ZM29.9544 279.352C29.6751 279.352 29.4336 279.252 29.23 279.053C29.0311 278.85 28.9317 278.608 28.9317 278.329C28.9317 278.045 29.0311 277.803 29.23 277.604C29.4336 277.406 29.6751 277.306 29.9544 277.306C30.2385 277.306 30.48 277.406 30.6788 277.604C30.8777 277.803 30.9771 278.045 30.9771 278.329C30.9771 278.514 30.9298 278.684 30.8351 278.84C30.7451 278.997 30.622 279.122 30.4658 279.217C30.3143 279.307 30.1438 279.352 29.9544 279.352ZM38.2357 279.444C37.3076 279.444 36.4814 279.269 35.757 278.918C35.0325 278.568 34.4644 278.09 34.0524 277.484C33.6405 276.873 33.4345 276.184 33.4345 275.417C33.4345 274.816 33.56 274.255 33.8109 273.734C34.0619 273.208 34.4075 272.768 34.8479 272.413C35.2882 272.053 35.783 271.819 36.3323 271.71V271.631C35.6173 271.423 35.042 271.014 34.6064 270.403C34.1708 269.787 33.9554 269.089 33.9601 268.308C33.9554 267.583 34.14 266.935 34.5141 266.362C34.8881 265.789 35.3971 265.336 36.0411 265.005C36.6897 264.669 37.4213 264.501 38.2357 264.501C39.0453 264.501 39.7721 264.669 40.4161 265.005C41.06 265.336 41.569 265.789 41.943 266.362C42.3218 266.935 42.5136 267.583 42.5183 268.308C42.5136 269.084 42.2934 269.783 41.8578 270.403C41.4222 271.018 40.8493 271.428 40.1391 271.631V271.71C40.6883 271.814 41.1807 272.046 41.6163 272.406C42.052 272.765 42.3976 273.208 42.6533 273.734C42.909 274.255 43.0368 274.816 43.0368 275.417C43.0368 276.184 42.8285 276.873 42.4118 277.484C41.9999 278.09 41.4317 278.568 40.7073 278.918C39.9876 279.269 39.1637 279.444 38.2357 279.444ZM38.2357 278.251C38.927 278.251 39.533 278.128 40.0538 277.881C40.5794 277.631 40.989 277.287 41.2825 276.852C41.5808 276.416 41.73 275.917 41.73 275.353C41.73 274.771 41.5761 274.252 41.2683 273.798C40.9606 273.338 40.5439 272.976 40.0183 272.711C39.4928 272.441 38.8985 272.306 38.2357 272.306C37.5728 272.306 36.9762 272.441 36.4459 272.711C35.9203 272.976 35.5037 273.338 35.1959 273.798C34.8929 274.252 34.7413 274.771 34.7413 275.353C34.7413 275.917 34.8858 276.416 35.1746 276.852C35.4681 277.287 35.8777 277.631 36.4033 277.881C36.9336 278.128 37.5444 278.251 38.2357 278.251ZM38.2357 271.17C38.8038 271.17 39.3128 271.049 39.7627 270.808C40.2125 270.566 40.5676 270.237 40.828 269.82C41.0931 269.399 41.2281 268.921 41.2328 268.386C41.2281 267.855 41.0955 267.387 40.8351 266.979C40.5747 266.568 40.2196 266.248 39.7698 266.021C39.3247 265.789 38.8133 265.673 38.2357 265.673C37.658 265.673 37.1419 265.789 36.6874 266.021C36.2376 266.248 35.8824 266.568 35.622 266.979C35.3663 267.387 35.2409 267.855 35.2456 268.386C35.2409 268.921 35.3687 269.399 35.6291 269.82C35.8943 270.237 36.2518 270.566 36.7016 270.808C37.1561 271.049 37.6675 271.17 38.2357 271.17ZM53.344 276.546V275.886C53.344 275.341 53.4529 274.851 53.6707 274.416C53.8885 273.975 54.1986 273.627 54.6011 273.372C55.0035 273.116 55.4818 272.988 56.0357 272.988C56.5944 272.988 57.0727 273.116 57.4704 273.372C57.8681 273.627 58.1735 273.975 58.3866 274.416C58.5997 274.851 58.7062 275.341 58.7062 275.886V276.546C58.7062 277.091 58.5973 277.581 58.3795 278.016C58.1664 278.452 57.861 278.8 57.4633 279.06C57.0656 279.316 56.5897 279.444 56.0357 279.444C55.4723 279.444 54.9893 279.316 54.5869 279.06C54.1891 278.8 53.8814 278.452 53.6636 278.016C53.4505 277.581 53.344 277.091 53.344 276.546ZM54.459 275.886V276.546C54.459 277.081 54.5892 277.538 54.8497 277.917C55.1148 278.291 55.5102 278.478 56.0357 278.478C56.5471 278.478 56.933 278.291 57.1934 277.917C57.4538 277.538 57.584 277.081 57.584 276.546V275.886C57.584 275.351 57.4562 274.896 57.2005 274.522C56.9448 274.143 56.5566 273.954 56.0357 273.954C55.5196 273.954 55.1266 274.143 54.8568 274.522C54.5916 274.896 54.459 275.351 54.459 275.886ZM46.0144 268.059V267.399C46.0144 266.854 46.1233 266.364 46.3411 265.928C46.5589 265.493 46.8691 265.147 47.2715 264.891C47.674 264.631 48.1522 264.501 48.7062 264.501C49.2649 264.501 49.7431 264.631 50.1408 264.891C50.5386 265.147 50.844 265.493 51.057 265.928C51.2701 266.364 51.3766 266.854 51.3766 267.399V268.059C51.3766 268.604 51.2677 269.096 51.0499 269.536C50.8369 269.972 50.5315 270.318 50.1337 270.573C49.736 270.829 49.2602 270.957 48.7062 270.957C48.1427 270.957 47.6598 270.829 47.2573 270.573C46.8596 270.318 46.5518 269.972 46.334 269.536C46.121 269.096 46.0144 268.604 46.0144 268.059ZM47.1295 267.399V268.059C47.1295 268.594 47.2597 269.051 47.5201 269.43C47.7853 269.804 48.1806 269.991 48.7062 269.991C49.2176 269.991 49.6034 269.804 49.8639 269.43C50.1243 269.051 50.2545 268.594 50.2545 268.059V267.399C50.2545 266.863 50.1266 266.409 49.871 266.035C49.6153 265.656 49.227 265.467 48.7062 265.467C48.1901 265.467 47.7971 265.656 47.5272 266.035C47.2621 266.409 47.1295 266.863 47.1295 267.399ZM46.6678 279.245L56.6607 264.7H57.9178L47.9249 279.245H46.6678Z" fill="black"/>
<path fill-rule="evenodd" clip-rule="evenodd" d="M226.442 150.509C229.139 148.567 230.901 145.359 230.901 141.73C230.901 135.804 226.203 131 220.408 131C214.612 131 209.914 135.804 209.914 141.73C209.914 145.359 211.676 148.567 214.373 150.509H211.66L194.651 166.603V178.309L211.66 163.677V177.333L202.427 203.182H215.022L221.275 187.508L228.669 203.182H239.847L230.613 177.333V163.677L246.164 177.333V165.628L228.669 150.509H226.442Z" fill="#CF6C5D"/>
</svg>
