<svg width="169" height="107" viewBox="0 0 169 107" fill="none" xmlns="http://www.w3.org/2000/svg">
<g filter="url(#filter0_d_238_882)">
<path fill-rule="evenodd" clip-rule="evenodd" d="M80.4396 0.999906L80.5629 1.00572C101.617 1.99799 123.166 13.3227 131.269 19.3905L131.282 19.3999L131.294 19.4098C147.76 32.8153 156.612 44.8677 160.966 54.5323C165.31 64.1739 165.2 71.5018 163.605 75.3851L163.602 75.3936L163.598 75.4019C158.625 86.7438 148.627 90.6232 138.413 90.9047C128.419 91.1802 118.095 88.0294 111.671 84.973C99.9428 91.5181 80.9117 98.8636 61.3957 99.6019C43.3287 100.285 24.7834 95.3004 11.306 78.7244C10.1336 77.3647 9.10466 75.9777 8.21688 74.5869C8.04105 74.3305 7.86628 74.0717 7.69259 73.8106L7.72371 73.7899C5.77513 70.539 4.59486 67.2929 4.15384 64.3545L4.1492 64.3236L4.14707 64.2924C2.51816 40.5071 14.6177 25.345 30.3714 15.9032C45.7996 6.65645 64.7727 2.85801 77.9544 1.68487L78.0926 1.64677L80.3207 1.03269L80.4396 0.999906ZM61.3371 98.0542C49.1105 98.5168 36.746 96.3407 25.9526 89.6576C27.5849 90.4308 29.3115 91.1418 31.1334 91.7788C48.0584 97.6961 73.1728 97.2265 107.516 81.1167L107.529 81.1107L107.542 81.1042L109.406 80.1448L110.694 83.7443C99.097 90.1749 80.4215 97.3323 61.3371 98.0542ZM19.6258 64.8365C26.3977 76.3639 53.0902 93.2026 106.213 72.6479L108.727 78.7526L106.846 79.7206C72.7501 95.7113 48.0715 96.0599 31.6446 90.3168C23.1046 87.3311 16.783 82.699 12.4977 77.7346C11.4765 76.4781 10.4851 75.1533 9.52605 73.7574C7.3981 70.4241 6.13691 67.0973 5.69009 64.1552C4.12332 41.1094 15.7867 26.45 31.1676 17.2317C42.1233 10.6655 54.9436 6.88013 66.142 4.84799C55.0966 8.26444 42.7093 13.5071 33.0425 20.8338C26.293 25.9493 20.8203 32.1182 18.0924 39.4402C15.356 46.7852 15.4121 55.2112 19.584 64.7545L19.6024 64.7967L19.6258 64.8365ZM77.8544 3.3328C64.9535 6.1994 46.9256 12.2549 33.978 22.0681C27.3699 27.0765 22.1347 33.0263 19.5437 39.9809C16.9653 46.9018 16.9756 54.8966 20.9845 64.0915C27.2636 74.7136 53.022 91.6135 105.785 71.153L88.9596 30.0609L86.8152 24.8236C86.18 24.7517 85.5947 24.6828 85.097 24.6075C84.6653 24.5422 84.2475 24.4654 83.9011 24.3589C82.6098 24.1033 81.6368 23.8198 80.9349 23.5109C80.3342 23.2466 79.8337 22.9222 79.535 22.492C79.1936 22.0002 79.1706 21.4492 79.3948 20.9549C79.5916 20.5209 79.9587 20.1684 80.3319 19.8882C80.7187 19.5978 81.1878 19.3295 81.6835 19.0857C82.4266 18.7203 83.2751 18.3881 84.0904 18.1058L77.8544 3.3328ZM84.239 19.6961C83.5836 19.933 82.9341 20.1967 82.3669 20.4756C81.9192 20.6957 81.5432 20.9155 81.2619 21.1267C80.9671 21.3481 80.8434 21.5107 80.8053 21.5946C80.8037 21.5981 80.8023 21.6004 80.8011 21.6019C80.8027 21.603 80.8047 21.6051 80.8073 21.6087C80.8645 21.6912 81.0548 21.8716 81.5587 22.0933C81.9221 22.2532 82.398 22.4134 83.0053 22.5701C83.1534 22.3597 83.3618 22.1898 83.5622 22.0514C83.6983 21.9574 83.855 21.8618 84.0309 21.764L84.239 19.6961ZM85.0225 22.9902C85.7289 23.1108 86.5347 23.2269 87.4501 23.3367L87.9021 23.3909L88.0746 23.8121L89.798 28.0211L91.1144 25.7631L91.2063 25.6056L91.3587 25.5056C91.5892 25.3544 91.6601 25.2465 91.6784 25.2085L91.6793 25.2066C91.6867 25.1913 91.69 25.1845 91.6787 25.1488C91.6305 24.9965 91.4009 24.7007 90.8315 24.3153C89.7526 23.5848 88.0386 22.9141 86.7608 22.5222L85.9129 22.2621L86.2849 21.457L87.6136 18.5808L80.1046 2.69877L79.3551 2.90535L85.8433 18.2759L85.9202 18.4579L85.9004 18.6546L85.5303 22.3326L85.4876 22.7562L85.1072 22.9472L85.0653 22.9683L85.0225 22.9902ZM81.9393 2.95577L88.9981 17.8856C90.6934 18.2115 93.0851 18.9225 95.4871 20.0922C98.0813 21.3555 100.75 23.1845 102.546 25.7036L102.57 25.7371L102.59 25.7729C102.924 26.3652 103.138 27.1157 102.918 27.835C102.68 28.6169 102.01 29.1174 101.094 29.3106C100.207 29.4978 99.011 29.4232 97.4667 29.0497C96.3113 28.7702 94.9271 28.3149 93.2801 27.6419L109.449 64.5948C122.185 67.4805 129.629 65.7573 133.795 62.6408C137.978 59.5113 139.042 54.836 138.728 51.4545C135.654 36.7169 125.35 25.5733 113.612 17.5497C102.587 10.0139 90.374 5.28518 81.9393 2.95577ZM110.216 66.348L115.134 77.5872C121.291 80.4988 130.908 83.7837 140.071 84.3462C149.37 84.917 157.94 82.6838 162.187 74.7612C163.551 71.3968 163.781 64.5501 159.554 55.1685C155.324 45.779 146.651 33.9121 130.328 20.6209C123.428 15.4578 106.505 6.37482 88.6547 3.43295C96.4255 6.12928 105.811 10.3415 114.486 16.2711C126.409 24.4209 137.077 35.8773 140.253 51.1814L140.261 51.2224L140.265 51.2642C140.631 55.0462 139.459 60.3379 134.722 63.881C130.174 67.2834 122.513 68.9418 110.216 66.348ZM156.734 82.6623C151.977 85.4928 146.005 86.2621 139.976 85.8921C131.014 85.3419 121.694 82.2728 115.408 79.4209C115.365 80.2327 115.169 81.1111 114.845 81.9052C114.527 82.684 114.046 83.4766 113.379 84.0553C119.683 86.8752 129.202 89.6092 138.37 89.3565C145.211 89.168 151.793 87.3263 156.734 82.6623ZM112.102 83.0814C112.628 82.7414 113.082 82.1257 113.411 81.32C113.846 80.2539 113.955 79.1002 113.803 78.4087L108.186 65.5729L91.6849 27.8597L90.5376 29.8275L110.431 78.412L110.437 78.4282L110.443 78.4447L112.102 83.0814ZM93.0755 25.8768C95.0311 26.7167 96.5959 27.2456 97.8308 27.5443C99.2772 27.8942 100.212 27.9137 100.775 27.7952C101.309 27.6825 101.408 27.4773 101.437 27.3829C101.484 27.2303 101.465 26.9463 101.26 26.5675C99.6691 24.3537 97.2615 22.679 94.809 21.4847C92.6332 20.4251 90.471 19.7675 88.9187 19.4488L88.0554 21.3175C89.2608 21.7389 90.6796 22.342 91.6998 23.0328C92.3053 23.4427 92.9371 23.9913 93.1555 24.6821C93.2767 25.0655 93.2656 25.4797 93.0755 25.8768ZM84.1545 22.7988C84.1548 22.7987 84.1582 22.8006 84.1641 22.8048C84.1572 22.801 84.1543 22.7989 84.1545 22.7988ZM73.1805 44.2728C74.3436 44.1893 75.5771 43.9762 76.8311 43.6189C78.7183 43.0813 80.3663 42.2988 81.6654 41.4C79.3375 41.2774 77.338 41.8145 75.755 42.5778C74.6882 43.0922 73.8228 43.7032 73.1805 44.2728ZM83.3019 40.0197C80.0235 39.492 77.2202 40.1518 75.0823 41.1827C73.2025 42.0892 71.8058 43.2983 71.0437 44.2773C70.5041 44.2379 69.9914 44.1668 69.5123 44.0661C67.4646 43.6356 66.2314 42.7201 65.8622 41.6256C65.493 40.5311 65.9466 39.1351 67.3703 37.7157C68.7698 36.3204 70.9805 35.0494 73.6812 34.2801C76.3818 33.5108 78.9872 33.4097 81 33.8329C83.0477 34.2635 84.2809 35.1789 84.6501 36.2734C85.0051 37.3258 84.5993 38.657 83.3019 40.0197ZM63.3951 16.573C63.2702 16.034 63.552 15.2745 64.5465 14.4696C65.5083 13.6913 66.9843 13.0138 68.7515 12.6679C70.5186 12.322 72.1669 12.3878 73.3904 12.7384C74.6555 13.1009 75.2496 13.6889 75.3746 14.228C75.4995 14.7671 75.2177 15.5265 74.2231 16.3314C73.2614 17.1097 71.7853 17.7872 70.0182 18.1331C68.251 18.479 66.6027 18.4132 65.3793 18.0626C64.1142 17.7001 63.52 17.1121 63.3951 16.573ZM68.4018 11.1591C66.4412 11.5429 64.7233 12.3067 63.5346 13.2686C62.3788 14.204 61.5537 15.4838 61.8752 16.8705C62.1966 18.2573 63.5175 19.117 64.9878 19.5383C66.4998 19.9716 68.4073 20.0257 70.3679 19.6419C72.3285 19.2581 74.0464 18.4943 75.235 17.5324C76.3909 16.597 77.2159 15.3172 76.8945 13.9305C76.5731 12.5437 75.2521 11.684 73.7818 11.2627C72.2699 10.8294 70.3624 10.7753 68.4018 11.1591ZM47.8015 27.8335C46.5642 29.0791 46.2289 30.2268 46.5359 31.0578C46.843 31.8888 47.8694 32.6116 49.6762 32.9073C51.4377 33.1956 53.7188 33.026 56.0804 32.2891C58.442 31.5521 60.3637 30.4101 61.57 29.1957C62.8072 27.95 63.1426 26.8023 62.8355 25.9713C62.5285 25.1403 61.502 24.4175 59.6952 24.1218C57.9337 23.8336 55.6527 24.0031 53.2911 24.7401C50.9295 25.477 49.0077 26.6191 47.8015 27.8335ZM46.6471 26.7534C48.0561 25.3348 50.2066 24.0823 52.7543 23.2873C55.3019 22.4922 57.8377 22.2823 59.8953 22.6191C61.9076 22.9484 63.7026 23.8551 64.314 25.5099C64.9254 27.1647 64.1024 28.8884 62.7244 30.2757C61.3153 31.6943 59.1648 32.9468 56.6172 33.7418C54.0695 34.5369 51.5338 34.7468 49.4762 34.41C47.4638 34.0807 45.6689 33.174 45.0575 31.5192C44.446 29.8645 45.269 28.1408 46.6471 26.7534ZM73.1862 32.8126C70.2873 33.6384 67.8367 35.0211 66.2263 36.6267C64.6401 38.2082 63.7353 40.1603 64.3727 42.0499C65.01 43.9396 66.9577 45.0791 69.2391 45.5588C71.5553 46.0458 74.4273 45.9123 77.3261 45.0865C80.225 44.2607 82.6756 42.8779 84.286 41.2723C85.8722 39.6908 86.777 37.7387 86.1396 35.8491C85.5023 33.9595 83.5546 32.8199 81.2733 32.3402C78.957 31.8532 76.085 31.9868 73.1862 32.8126Z" fill="black"/>
</g>
<defs>
<filter id="filter0_d_238_882" x="0.128048" y="0.22561" width="168.362" height="106.407" filterUnits="userSpaceOnUse" color-interpolation-filters="sRGB">
<feFlood flood-opacity="0" result="BackgroundImageFix"/>
<feColorMatrix in="SourceAlpha" type="matrix" values="0 0 0 0 0 0 0 0 0 0 0 0 0 0 0 0 0 0 127 0" result="hardAlpha"/>
<feOffset dy="3.09756"/>
<feGaussianBlur stdDeviation="1.93598"/>
<feComposite in2="hardAlpha" operator="out"/>
<feColorMatrix type="matrix" values="0 0 0 0 0 0 0 0 0 0 0 0 0 0 0 0 0 0 0.31 0"/>
<feBlend mode="normal" in2="BackgroundImageFix" result="effect1_dropShadow_238_882"/>
<feBlend mode="normal" in="SourceGraphic" in2="effect1_dropShadow_238_882" result="shape"/>
</filter>
</defs>
</svg>
