<svg width="320" height="205" viewBox="0 0 320 205" fill="none" xmlns="http://www.w3.org/2000/svg">
<path fill-rule="evenodd" clip-rule="evenodd" d="M68.8515 41.32C74.692 37.2072 78.5078 30.4122 78.5078 22.7259C78.5078 10.1747 68.3331 0 55.7819 0C43.2307 0 33.056 10.1747 33.056 22.7259C33.056 30.4122 36.8717 37.2072 42.7123 41.32H36.8371L0 75.4089V100.201L36.8371 69.211V98.1349L16.8398 152.884H44.1178L57.6589 119.686L73.6741 152.884H97.8813L77.8841 98.1349V69.211L111.564 98.1349V73.3429L73.6741 41.32H68.8515Z" fill="#CF6C5D"/>
<path fill-rule="evenodd" clip-rule="evenodd" d="M153.916 54.2748C157.556 51.7112 159.935 47.4758 159.935 42.6849C159.935 34.8616 153.593 28.5195 145.769 28.5195C137.946 28.5195 131.604 34.8616 131.604 42.6849C131.604 47.4758 133.983 51.7112 137.623 54.2748H133.961L111 75.5227V90.9758L133.961 71.6595V89.6881L121.496 123.814H138.499L146.939 103.121L156.922 123.814H172.01L159.546 89.6881V71.6595L180.539 89.6881V74.235L156.922 54.2748H153.916Z" fill="white"/>
<path fill-rule="evenodd" clip-rule="evenodd" d="M292.596 54.2748C296.236 51.7112 298.615 47.4758 298.615 42.6849C298.615 34.8616 292.272 28.5195 284.449 28.5195C276.626 28.5195 270.284 34.8616 270.284 42.6849C270.284 47.4758 272.662 51.7112 276.303 54.2748H272.641L249.68 75.5227V90.9758L272.641 71.6595V89.6881L260.176 123.814H277.179L285.619 103.121L295.602 123.814H310.69L298.226 89.6881V71.6595L319.219 89.6881V74.235L295.602 54.2748H292.596Z" fill="white"/>
<path fill-rule="evenodd" clip-rule="evenodd" d="M222.868 54.2748C226.509 51.7112 228.887 47.4758 228.887 42.6849C228.887 34.8616 222.545 28.5195 214.722 28.5195C206.898 28.5195 200.556 34.8616 200.556 42.6849C200.556 47.4758 202.935 51.7112 206.575 54.2748H202.913L179.952 75.5227V90.9758L202.913 71.6595V89.6881L190.449 123.814H207.451L215.892 103.121L225.874 123.814H240.963L228.498 89.6881V71.6595L249.491 89.6881V74.235L225.874 54.2748H222.868Z" fill="white"/>
<path d="M198.099 149.518V171.336H193.486V153.897H193.358L188.361 157.029V152.938L193.763 149.518H198.099ZM213.522 158.627V162.228H203.572V158.627H213.522ZM225.265 171.635C223.674 171.635 222.257 171.361 221.014 170.814C219.778 170.26 218.802 169.5 218.084 168.535C217.374 167.562 217.008 166.439 216.987 165.168H221.632C221.66 165.701 221.834 166.17 222.154 166.574C222.481 166.972 222.914 167.281 223.454 167.501C223.993 167.721 224.601 167.831 225.275 167.831C225.979 167.831 226.6 167.707 227.14 167.459C227.68 167.21 228.102 166.866 228.407 166.425C228.713 165.985 228.866 165.477 228.866 164.902C228.866 164.319 228.702 163.804 228.376 163.357C228.056 162.902 227.594 162.547 226.991 162.292C226.394 162.036 225.684 161.908 224.86 161.908H222.825V158.52H224.86C225.556 158.52 226.17 158.4 226.703 158.158C227.243 157.917 227.662 157.583 227.96 157.157C228.258 156.723 228.407 156.219 228.407 155.644C228.407 155.097 228.276 154.618 228.013 154.206C227.758 153.787 227.395 153.46 226.927 153.226C226.465 152.991 225.925 152.874 225.307 152.874C224.682 152.874 224.111 152.988 223.592 153.215C223.074 153.435 222.658 153.751 222.346 154.163C222.033 154.575 221.866 155.058 221.845 155.612H217.424C217.445 154.355 217.804 153.247 218.5 152.288C219.196 151.329 220.133 150.58 221.312 150.04C222.498 149.493 223.837 149.22 225.329 149.22C226.834 149.22 228.152 149.493 229.281 150.04C230.41 150.587 231.287 151.326 231.912 152.256C232.545 153.179 232.857 154.216 232.85 155.367C232.857 156.589 232.477 157.608 231.71 158.424C230.95 159.241 229.959 159.76 228.738 159.98V160.15C230.343 160.356 231.564 160.914 232.403 161.823C233.248 162.725 233.667 163.854 233.66 165.211C233.667 166.454 233.308 167.558 232.584 168.524C231.866 169.49 230.876 170.25 229.611 170.804C228.347 171.358 226.898 171.635 225.265 171.635Z" fill="black"/>
<path d="M188.619 204V203.027L193.371 197.686C193.991 196.985 194.491 196.386 194.869 195.889C195.248 195.392 195.523 194.933 195.693 194.511C195.868 194.09 195.956 193.652 195.956 193.197C195.956 192.643 195.826 192.161 195.565 191.749C195.31 191.332 194.957 191.008 194.507 190.776C194.057 190.544 193.551 190.428 192.987 190.428C192.391 190.428 191.867 190.555 191.418 190.811C190.973 191.067 190.627 191.417 190.381 191.862C190.134 192.307 190.011 192.819 190.011 193.396H188.74C188.74 192.591 188.925 191.879 189.294 191.259C189.668 190.634 190.177 190.143 190.821 189.788C191.47 189.433 192.204 189.256 193.023 189.256C193.832 189.256 194.552 189.431 195.182 189.781C195.812 190.127 196.306 190.598 196.666 191.195C197.026 191.791 197.206 192.459 197.206 193.197C197.206 193.732 197.111 194.251 196.922 194.753C196.737 195.255 196.418 195.813 195.963 196.429C195.509 197.045 194.879 197.797 194.074 198.688L190.466 202.714V202.807H197.661V204H188.619ZM205.322 204.199C204.394 204.199 203.568 204.024 202.843 203.673C202.119 203.323 201.551 202.845 201.139 202.239C200.727 201.628 200.521 200.939 200.521 200.172C200.521 199.571 200.646 199.009 200.897 198.489C201.148 197.963 201.494 197.523 201.934 197.168C202.375 196.808 202.869 196.573 203.419 196.464V196.386C202.704 196.178 202.128 195.768 201.693 195.158C201.257 194.542 201.042 193.844 201.047 193.062C201.042 192.338 201.226 191.689 201.6 191.116C201.975 190.544 202.484 190.091 203.127 189.76C203.776 189.424 204.508 189.256 205.322 189.256C206.132 189.256 206.859 189.424 207.502 189.76C208.146 190.091 208.655 190.544 209.029 191.116C209.408 191.689 209.6 192.338 209.605 193.062C209.6 193.839 209.38 194.537 208.944 195.158C208.509 195.773 207.936 196.183 207.225 196.386V196.464C207.775 196.569 208.267 196.801 208.703 197.161C209.138 197.52 209.484 197.963 209.74 198.489C209.995 199.009 210.123 199.571 210.123 200.172C210.123 200.939 209.915 201.628 209.498 202.239C209.086 202.845 208.518 203.323 207.794 203.673C207.074 204.024 206.25 204.199 205.322 204.199ZM205.322 203.006C206.013 203.006 206.619 202.883 207.14 202.636C207.666 202.385 208.075 202.042 208.369 201.607C208.667 201.171 208.816 200.671 208.816 200.108C208.816 199.526 208.663 199.007 208.355 198.553C208.047 198.093 207.63 197.731 207.105 197.466C206.579 197.196 205.985 197.061 205.322 197.061C204.659 197.061 204.063 197.196 203.532 197.466C203.007 197.731 202.59 198.093 202.282 198.553C201.979 199.007 201.828 199.526 201.828 200.108C201.828 200.671 201.972 201.171 202.261 201.607C202.555 202.042 202.964 202.385 203.49 202.636C204.02 202.883 204.631 203.006 205.322 203.006ZM205.322 195.925C205.89 195.925 206.399 195.804 206.849 195.562C207.299 195.321 207.654 194.992 207.914 194.575C208.18 194.154 208.315 193.676 208.319 193.141C208.315 192.61 208.182 192.142 207.922 191.734C207.661 191.322 207.306 191.003 206.856 190.776C206.411 190.544 205.9 190.428 205.322 190.428C204.744 190.428 204.228 190.544 203.774 190.776C203.324 191.003 202.969 191.322 202.708 191.734C202.453 192.142 202.327 192.61 202.332 193.141C202.327 193.676 202.455 194.154 202.716 194.575C202.981 194.992 203.338 195.321 203.788 195.562C204.243 195.804 204.754 195.925 205.322 195.925ZM213.603 204.107C213.324 204.107 213.083 204.007 212.879 203.808C212.68 203.605 212.581 203.363 212.581 203.084C212.581 202.8 212.68 202.558 212.879 202.359C213.083 202.161 213.324 202.061 213.603 202.061C213.887 202.061 214.129 202.161 214.328 202.359C214.527 202.558 214.626 202.8 214.626 203.084C214.626 203.268 214.579 203.439 214.484 203.595C214.394 203.751 214.271 203.877 214.115 203.972C213.963 204.062 213.793 204.107 213.603 204.107ZM220.706 189.455V204H219.377V190.847H219.292L215.883 193.112V191.734L219.321 189.455H220.706ZM232.481 201.301V200.641C232.481 200.096 232.59 199.606 232.808 199.17C233.026 198.73 233.336 198.382 233.738 198.126C234.141 197.871 234.619 197.743 235.173 197.743C235.732 197.743 236.21 197.871 236.608 198.126C237.005 198.382 237.311 198.73 237.524 199.17C237.737 199.606 237.843 200.096 237.843 200.641V201.301C237.843 201.846 237.734 202.336 237.517 202.771C237.304 203.207 236.998 203.555 236.6 203.815C236.203 204.071 235.727 204.199 235.173 204.199C234.609 204.199 234.127 204.071 233.724 203.815C233.326 203.555 233.019 203.207 232.801 202.771C232.588 202.336 232.481 201.846 232.481 201.301ZM233.596 200.641V201.301C233.596 201.836 233.726 202.293 233.987 202.672C234.252 203.046 234.647 203.233 235.173 203.233C235.684 203.233 236.07 203.046 236.331 202.672C236.591 202.293 236.721 201.836 236.721 201.301V200.641C236.721 200.106 236.593 199.651 236.338 199.277C236.082 198.898 235.694 198.709 235.173 198.709C234.657 198.709 234.264 198.898 233.994 199.277C233.729 199.651 233.596 200.106 233.596 200.641ZM225.152 192.814V192.153C225.152 191.609 225.261 191.119 225.478 190.683C225.696 190.248 226.006 189.902 226.409 189.646C226.811 189.386 227.289 189.256 227.843 189.256C228.402 189.256 228.88 189.386 229.278 189.646C229.676 189.902 229.981 190.248 230.194 190.683C230.407 191.119 230.514 191.609 230.514 192.153V192.814C230.514 193.358 230.405 193.851 230.187 194.291C229.974 194.727 229.669 195.072 229.271 195.328C228.873 195.584 228.397 195.712 227.843 195.712C227.28 195.712 226.797 195.584 226.395 195.328C225.997 195.072 225.689 194.727 225.471 194.291C225.258 193.851 225.152 193.358 225.152 192.814ZM226.267 192.153V192.814C226.267 193.349 226.397 193.806 226.657 194.185C226.922 194.559 227.318 194.746 227.843 194.746C228.355 194.746 228.741 194.559 229.001 194.185C229.261 193.806 229.392 193.349 229.392 192.814V192.153C229.392 191.618 229.264 191.164 229.008 190.79C228.752 190.411 228.364 190.222 227.843 190.222C227.327 190.222 226.934 190.411 226.664 190.79C226.399 191.164 226.267 191.618 226.267 192.153ZM225.805 204L235.798 189.455H237.055L227.062 204H225.805Z" fill="black"/>
</svg>
