<svg width="370" height="294" viewBox="0 0 370 294" fill="none" xmlns="http://www.w3.org/2000/svg">
<path fill-rule="evenodd" clip-rule="evenodd" d="M45.3035 30.0622C49.1263 27.3095 51.6237 22.7618 51.6237 17.6176C51.6237 9.21713 44.9638 2.40723 36.7484 2.40723C28.533 2.40723 21.8731 9.21713 21.8731 17.6176C21.8731 22.7618 24.3706 27.3095 28.1933 30.0622H24.3481L0.236328 52.8777V69.4708L24.3481 48.7295V68.0881L11.2589 104.731H29.1138L37.9771 82.5122L48.4599 104.731H64.3048L51.2155 68.0881V48.7295L73.2606 68.0881V51.495L48.4599 30.0622H45.3035Z" fill="#CF6C5D"/>
<path fill-rule="evenodd" clip-rule="evenodd" d="M339.956 130.471C343.82 127.75 346.345 123.254 346.345 118.169C346.345 109.865 339.613 103.134 331.309 103.134C323.006 103.134 316.274 109.865 316.274 118.169C316.274 123.254 318.798 127.75 322.662 130.471H318.776L294.404 153.024V169.426L318.776 148.924V168.06L305.545 204.281H323.593L332.551 182.318L343.147 204.281H359.162L345.932 168.06V148.924L368.215 168.06V151.657L343.147 130.471H339.956Z" fill="white"/>
<path fill-rule="evenodd" clip-rule="evenodd" d="M45.5522 131.245C49.4162 128.524 51.9406 124.029 51.9406 118.944C51.9406 110.64 45.209 103.908 36.9051 103.908C28.6013 103.908 21.8697 110.64 21.8697 118.944C21.8697 124.029 24.3941 128.524 28.2581 131.245H24.3713L0 153.798V170.201L24.3713 149.698V168.834L11.1412 205.056H29.1883L38.1471 183.092L48.7427 205.056H64.7581L51.528 168.834V149.698L73.8104 168.834V152.432L48.7427 131.245H45.5522Z" fill="white"/>
<path fill-rule="evenodd" clip-rule="evenodd" d="M194.413 27.3371C198.277 24.6161 200.802 20.1206 200.802 15.0354C200.802 6.7316 194.07 0 185.766 0C177.463 0 170.731 6.7316 170.731 15.0354C170.731 20.1206 173.255 24.6161 177.119 27.3371H173.233L148.861 49.8903V66.2926L173.233 45.7897V64.9257L160.003 101.147H178.05L187.008 79.184L197.604 101.147H213.619L200.389 64.9257V45.7897L222.672 64.9257V48.5234L197.604 27.3371H194.413Z" fill="white"/>
<path fill-rule="evenodd" clip-rule="evenodd" d="M120.812 28.112C124.676 25.391 127.201 20.8955 127.201 15.8103C127.201 7.5065 120.469 0.774902 112.165 0.774902C103.862 0.774902 97.13 7.5065 97.13 15.8103C97.13 20.8955 99.6544 25.391 103.518 28.112H99.6316L75.2603 50.6652V67.0675L99.6316 46.5646V65.7006L86.4014 101.922H104.449L113.407 79.9589L124.003 101.922H140.018L126.788 65.7006V46.5646L149.071 65.7006V49.2983L124.003 28.112H120.812Z" fill="white"/>
<path fill-rule="evenodd" clip-rule="evenodd" d="M268.015 28.112C271.879 25.391 274.403 20.8955 274.403 15.8103C274.403 7.5065 267.671 0.774902 259.368 0.774902C251.064 0.774902 244.332 7.5065 244.332 15.8103C244.332 20.8955 246.857 25.391 250.721 28.112H246.834L222.462 50.6652V67.0675L246.834 46.5646V65.7006L233.604 101.922H251.651L260.609 79.9589L271.205 101.922H287.221L273.99 65.7006V46.5646L296.273 65.7006V49.2983L271.205 28.112H268.015Z" fill="white"/>
<path fill-rule="evenodd" clip-rule="evenodd" d="M341.616 27.3371C345.48 24.6161 348.004 20.1206 348.004 15.0354C348.004 6.7316 341.272 0 332.969 0C324.665 0 317.933 6.7316 317.933 15.0354C317.933 20.1206 320.458 24.6161 324.322 27.3371H320.435L296.063 49.8903V66.2926L320.435 45.7897V64.9257L307.205 101.147H325.252L334.211 79.184L344.806 101.147H360.822L347.591 64.9257V45.7897L369.874 64.9257V48.5234L344.806 27.3371H341.616Z" fill="white"/>
<path fill-rule="evenodd" clip-rule="evenodd" d="M266.355 130.471C270.219 127.75 272.744 123.254 272.744 118.169C272.744 109.865 266.012 103.134 257.708 103.134C249.405 103.134 242.673 109.865 242.673 118.169C242.673 123.254 245.197 127.75 249.061 130.471H245.175L220.803 153.024V169.426L245.175 148.924V168.06L231.944 204.281H249.992L258.95 182.318L269.546 204.281H285.561L272.331 168.06V148.924L294.614 168.06V151.657L269.546 130.471H266.355Z" fill="white"/>
<path fill-rule="evenodd" clip-rule="evenodd" d="M119.153 131.245C123.017 128.524 125.542 124.029 125.542 118.944C125.542 110.64 118.81 103.908 110.506 103.908C102.202 103.908 95.4708 110.64 95.4708 118.944C95.4708 124.029 97.9952 128.524 101.859 131.245H97.9724L73.6011 153.798V170.201L97.9724 149.698V168.834L84.7423 205.056H102.789L111.748 183.092L122.344 205.056H138.359L125.129 168.834V149.698L147.411 168.834V152.432L122.344 131.245H119.153Z" fill="white"/>
<path fill-rule="evenodd" clip-rule="evenodd" d="M192.754 130.471C196.618 127.75 199.143 123.254 199.143 118.169C199.143 109.865 192.411 103.134 184.107 103.134C175.803 103.134 169.072 109.865 169.072 118.169C169.072 123.254 171.596 127.75 175.46 130.471H171.573L147.202 153.024V169.426L171.573 148.924V168.06L158.343 204.281H176.39L185.349 182.318L195.945 204.281H211.96L198.73 168.06V148.924L221.013 168.06V151.657L195.945 130.471H192.754Z" fill="white"/>
<path d="M130.868 264.111L139.912 246.214V246.064H129.376V242.293H144.685V246.118L135.63 264.111H130.868ZM158.085 251.402V255.003H148.134V251.402H158.085ZM169.803 241.995C170.925 241.995 172.005 242.183 173.042 242.559C174.086 242.936 175.016 243.536 175.833 244.36C176.657 245.184 177.307 246.278 177.783 247.641C178.266 248.998 178.511 250.663 178.518 252.638C178.518 254.491 178.308 256.146 177.889 257.602C177.477 259.051 176.884 260.283 176.11 261.299C175.336 262.314 174.402 263.089 173.308 263.621C172.214 264.147 170.993 264.41 169.643 264.41C168.188 264.41 166.902 264.129 165.787 263.568C164.672 263 163.773 262.229 163.092 261.256C162.417 260.276 162.009 259.175 161.866 257.954H166.415C166.593 258.749 166.966 259.367 167.534 259.807C168.102 260.241 168.805 260.457 169.643 260.457C171.064 260.457 172.143 259.839 172.882 258.604C173.621 257.361 173.994 255.66 174.001 253.501H173.852C173.525 254.14 173.085 254.69 172.531 255.152C171.977 255.606 171.341 255.958 170.624 256.206C169.913 256.455 169.157 256.579 168.354 256.579C167.069 256.579 165.922 256.278 164.913 255.674C163.905 255.07 163.109 254.239 162.527 253.181C161.945 252.123 161.653 250.915 161.653 249.559C161.646 248.096 161.984 246.792 162.665 245.649C163.347 244.506 164.299 243.611 165.521 242.964C166.749 242.311 168.177 241.988 169.803 241.995ZM169.835 245.617C169.118 245.617 168.479 245.787 167.918 246.128C167.364 246.469 166.923 246.927 166.597 247.503C166.277 248.078 166.121 248.721 166.128 249.431C166.128 250.148 166.284 250.795 166.597 251.37C166.916 251.938 167.349 252.393 167.896 252.733C168.45 253.067 169.082 253.234 169.793 253.234C170.325 253.234 170.819 253.135 171.273 252.936C171.728 252.737 172.122 252.464 172.456 252.116C172.797 251.76 173.063 251.352 173.255 250.89C173.447 250.429 173.543 249.939 173.543 249.42C173.536 248.731 173.372 248.099 173.053 247.524C172.733 246.949 172.293 246.487 171.732 246.139C171.17 245.791 170.538 245.617 169.835 245.617Z" fill="black"/>
<path d="M134.344 278.566V293.111H133.016V279.958H132.931L129.522 282.224V280.846L132.959 278.566H134.344ZM143.343 293.31C142.742 293.305 142.154 293.185 141.581 292.948C141.009 292.706 140.492 292.321 140.033 291.79C139.574 291.255 139.209 290.55 138.939 289.674C138.67 288.798 138.535 287.721 138.535 286.442C138.535 285.259 138.639 284.174 138.847 283.189C139.055 282.205 139.368 281.352 139.785 280.633C140.201 279.913 140.722 279.357 141.347 278.964C141.972 278.566 142.704 278.367 143.542 278.367C144.328 278.367 145.021 278.53 145.623 278.857C146.224 279.179 146.712 279.629 147.086 280.206C147.46 280.784 147.694 281.449 147.789 282.202H146.482C146.349 281.435 146.035 280.803 145.537 280.306C145.04 279.809 144.375 279.56 143.542 279.56C142.349 279.56 141.425 280.114 140.772 281.222C140.118 282.325 139.789 283.893 139.785 285.924H139.877C140.109 285.493 140.407 285.121 140.772 284.809C141.141 284.492 141.56 284.245 142.029 284.07C142.498 283.89 142.99 283.8 143.506 283.8C144.316 283.8 145.057 284.006 145.729 284.418C146.402 284.825 146.939 285.386 147.341 286.101C147.744 286.812 147.945 287.624 147.945 288.537C147.945 289.404 147.753 290.202 147.37 290.931C146.991 291.66 146.456 292.24 145.765 292.671C145.078 293.102 144.271 293.315 143.343 293.31ZM143.343 292.117C143.977 292.117 144.543 291.956 145.04 291.634C145.542 291.312 145.938 290.881 146.226 290.341C146.515 289.797 146.66 289.196 146.66 288.537C146.66 287.879 146.515 287.283 146.226 286.748C145.938 286.213 145.542 285.787 145.04 285.469C144.543 285.152 143.977 284.993 143.343 284.993C142.86 284.993 142.41 285.093 141.993 285.292C141.577 285.486 141.215 285.753 140.907 286.094C140.604 286.43 140.372 286.816 140.211 287.252C140.055 287.688 139.995 288.144 140.033 288.623C140.085 289.29 140.258 289.889 140.552 290.42C140.85 290.945 141.238 291.359 141.716 291.662C142.199 291.965 142.742 292.117 143.343 292.117ZM151.324 293.218C151.045 293.218 150.803 293.118 150.6 292.92C150.401 292.716 150.301 292.474 150.301 292.195C150.301 291.911 150.401 291.67 150.6 291.471C150.803 291.272 151.045 291.172 151.324 291.172C151.608 291.172 151.85 291.272 152.048 291.471C152.247 291.67 152.347 291.911 152.347 292.195C152.347 292.38 152.299 292.55 152.205 292.706C152.115 292.863 151.992 292.988 151.835 293.083C151.684 293.173 151.513 293.218 151.324 293.218ZM155.289 289.986V288.907L161.773 278.566H162.569V280.377H161.979L156.773 288.701V288.793H165.275V289.986H155.289ZM162.079 293.111V289.645V289.148V278.566H163.343V293.111H162.079ZM175.514 290.412V289.752C175.514 289.207 175.623 288.717 175.841 288.282C176.059 287.841 176.369 287.493 176.771 287.238C177.174 286.982 177.652 286.854 178.206 286.854C178.765 286.854 179.243 286.982 179.641 287.238C180.039 287.493 180.344 287.841 180.557 288.282C180.77 288.717 180.877 289.207 180.877 289.752V290.412C180.877 290.957 180.768 291.447 180.55 291.883C180.337 292.318 180.031 292.666 179.634 292.927C179.236 293.182 178.76 293.31 178.206 293.31C177.643 293.31 177.16 293.182 176.757 292.927C176.36 292.666 176.052 292.318 175.834 291.883C175.621 291.447 175.514 290.957 175.514 290.412ZM176.629 289.752V290.412C176.629 290.948 176.76 291.404 177.02 291.783C177.285 292.157 177.681 292.344 178.206 292.344C178.718 292.344 179.103 292.157 179.364 291.783C179.624 291.404 179.754 290.948 179.754 290.412V289.752C179.754 289.217 179.627 288.762 179.371 288.388C179.115 288.01 178.727 287.82 178.206 287.82C177.69 287.82 177.297 288.01 177.027 288.388C176.762 288.762 176.629 289.217 176.629 289.752ZM168.185 281.925V281.265C168.185 280.72 168.294 280.23 168.512 279.795C168.729 279.359 169.039 279.013 169.442 278.758C169.844 278.497 170.323 278.367 170.877 278.367C171.435 278.367 171.914 278.497 172.311 278.758C172.709 279.013 173.014 279.359 173.227 279.795C173.441 280.23 173.547 280.72 173.547 281.265V281.925C173.547 282.47 173.438 282.962 173.22 283.403C173.007 283.838 172.702 284.184 172.304 284.439C171.906 284.695 171.431 284.823 170.877 284.823C170.313 284.823 169.83 284.695 169.428 284.439C169.03 284.184 168.722 283.838 168.504 283.403C168.291 282.962 168.185 282.47 168.185 281.925ZM169.3 281.265V281.925C169.3 282.46 169.43 282.917 169.691 283.296C169.956 283.67 170.351 283.857 170.877 283.857C171.388 283.857 171.774 283.67 172.034 283.296C172.295 282.917 172.425 282.46 172.425 281.925V281.265C172.425 280.73 172.297 280.275 172.041 279.901C171.786 279.522 171.397 279.333 170.877 279.333C170.36 279.333 169.968 279.522 169.698 279.901C169.432 280.275 169.3 280.73 169.3 281.265ZM168.838 293.111L178.831 278.566H180.088L170.095 293.111H168.838Z" fill="black"/>
</svg>
