<svg width="590" height="302" viewBox="0 0 590 302" fill="none" xmlns="http://www.w3.org/2000/svg">
<path d="M269.261 243.182V265H264.648V247.56H264.52L259.523 250.692V246.602L264.925 243.182H269.261ZM282.82 265.298C281.698 265.291 280.615 265.103 279.57 264.734C278.534 264.364 277.603 263.764 276.779 262.933C275.955 262.102 275.302 261.001 274.819 259.631C274.343 258.26 274.105 256.577 274.105 254.581C274.112 252.749 274.322 251.112 274.734 249.67C275.153 248.221 275.749 246.992 276.524 245.984C277.305 244.975 278.239 244.208 279.325 243.683C280.412 243.15 281.63 242.884 282.98 242.884C284.436 242.884 285.721 243.168 286.836 243.736C287.951 244.297 288.846 245.06 289.521 246.026C290.203 246.992 290.615 248.075 290.757 249.276H286.208C286.03 248.516 285.657 247.919 285.089 247.486C284.521 247.053 283.818 246.836 282.98 246.836C281.559 246.836 280.48 247.454 279.741 248.69C279.009 249.925 278.637 251.605 278.622 253.729H278.771C279.098 253.082 279.539 252.532 280.093 252.077C280.654 251.616 281.289 251.264 281.999 251.023C282.717 250.774 283.473 250.65 284.269 250.65C285.561 250.65 286.712 250.955 287.72 251.566C288.729 252.17 289.524 253.001 290.107 254.059C290.689 255.117 290.98 256.328 290.98 257.692C290.98 259.169 290.636 260.483 289.947 261.634C289.265 262.784 288.31 263.686 287.081 264.339C285.86 264.986 284.439 265.305 282.82 265.298ZM282.798 261.676C283.509 261.676 284.144 261.506 284.705 261.165C285.267 260.824 285.707 260.362 286.026 259.78C286.346 259.197 286.506 258.544 286.506 257.82C286.506 257.095 286.346 256.445 286.026 255.87C285.714 255.295 285.281 254.837 284.727 254.496C284.173 254.155 283.541 253.984 282.83 253.984C282.298 253.984 281.804 254.084 281.35 254.283C280.902 254.482 280.508 254.759 280.167 255.114C279.833 255.469 279.57 255.881 279.379 256.349C279.187 256.811 279.091 257.305 279.091 257.83C279.091 258.533 279.251 259.176 279.57 259.759C279.897 260.341 280.338 260.806 280.892 261.154C281.453 261.502 282.088 261.676 282.798 261.676ZM300.771 261.676V246.591H304.585V261.676H300.771ZM295.135 256.04V252.227H310.22V256.04H295.135Z" fill="black"/>
<path d="M269.342 301.199C268.447 301.199 267.647 301.038 266.942 300.716C266.236 300.389 265.678 299.937 265.266 299.359C264.854 298.782 264.636 298.116 264.612 297.364H265.955C265.978 297.894 266.142 298.358 266.445 298.756C266.748 299.149 267.15 299.456 267.652 299.679C268.154 299.897 268.713 300.006 269.328 300.006C270 300.006 270.592 299.88 271.104 299.629C271.62 299.378 272.022 299.035 272.311 298.599C272.605 298.159 272.751 297.662 272.751 297.108C272.751 296.521 272.602 296.002 272.304 295.553C272.006 295.103 271.577 294.752 271.018 294.501C270.464 294.25 269.802 294.125 269.03 294.125H268.178V292.932H269.03C269.66 292.932 270.216 292.818 270.699 292.591C271.187 292.359 271.57 292.035 271.849 291.618C272.129 291.201 272.268 290.711 272.268 290.148C272.268 289.613 272.148 289.142 271.906 288.734C271.665 288.327 271.324 288.008 270.884 287.776C270.448 287.544 269.939 287.428 269.357 287.428C268.793 287.428 268.277 287.536 267.808 287.754C267.339 287.972 266.961 288.28 266.672 288.678C266.388 289.075 266.236 289.546 266.217 290.091H264.932C264.951 289.333 265.159 288.668 265.557 288.095C265.959 287.518 266.492 287.068 267.155 286.746C267.822 286.419 268.561 286.256 269.371 286.256C270.228 286.256 270.969 286.431 271.594 286.781C272.219 287.132 272.702 287.598 273.043 288.18C273.388 288.758 273.561 289.395 273.561 290.091C273.561 290.92 273.336 291.63 272.886 292.222C272.437 292.809 271.83 293.216 271.068 293.443V293.536C271.996 293.72 272.725 294.132 273.256 294.771C273.791 295.406 274.058 296.185 274.058 297.108C274.058 297.884 273.855 298.583 273.447 299.203C273.04 299.819 272.482 300.306 271.771 300.666C271.066 301.021 270.256 301.199 269.342 301.199ZM277.728 301.107C277.449 301.107 277.208 301.007 277.004 300.808C276.805 300.605 276.706 300.363 276.706 300.084C276.706 299.8 276.805 299.558 277.004 299.359C277.208 299.161 277.449 299.061 277.728 299.061C278.012 299.061 278.254 299.161 278.453 299.359C278.652 299.558 278.751 299.8 278.751 300.084C278.751 300.268 278.704 300.439 278.609 300.595C278.519 300.751 278.396 300.877 278.24 300.972C278.088 301.062 277.918 301.107 277.728 301.107ZM281.693 297.875V296.795L288.178 286.455H288.973V288.266H288.384L283.178 296.589V296.682H291.679V297.875H281.693ZM288.483 301V297.534V297.037V286.455H289.747V301H288.483ZM301.919 298.301V297.641C301.919 297.096 302.028 296.606 302.245 296.17C302.463 295.73 302.773 295.382 303.176 295.126C303.578 294.871 304.056 294.743 304.61 294.743C305.169 294.743 305.647 294.871 306.045 295.126C306.443 295.382 306.748 295.73 306.961 296.17C307.174 296.606 307.281 297.096 307.281 297.641V298.301C307.281 298.846 307.172 299.336 306.954 299.771C306.741 300.207 306.436 300.555 306.038 300.815C305.64 301.071 305.164 301.199 304.61 301.199C304.047 301.199 303.564 301.071 303.162 300.815C302.764 300.555 302.456 300.207 302.238 299.771C302.025 299.336 301.919 298.846 301.919 298.301ZM303.034 297.641V298.301C303.034 298.836 303.164 299.293 303.424 299.672C303.69 300.046 304.085 300.233 304.61 300.233C305.122 300.233 305.508 300.046 305.768 299.672C306.029 299.293 306.159 298.836 306.159 298.301V297.641C306.159 297.106 306.031 296.651 305.775 296.277C305.52 295.898 305.131 295.709 304.61 295.709C304.094 295.709 303.701 295.898 303.431 296.277C303.166 296.651 303.034 297.106 303.034 297.641ZM294.589 289.814V289.153C294.589 288.609 294.698 288.119 294.916 287.683C295.134 287.248 295.444 286.902 295.846 286.646C296.249 286.386 296.727 286.256 297.281 286.256C297.84 286.256 298.318 286.386 298.716 286.646C299.113 286.902 299.419 287.248 299.632 287.683C299.845 288.119 299.951 288.609 299.951 289.153V289.814C299.951 290.358 299.842 290.851 299.625 291.291C299.412 291.727 299.106 292.072 298.708 292.328C298.311 292.584 297.835 292.712 297.281 292.712C296.717 292.712 296.234 292.584 295.832 292.328C295.434 292.072 295.127 291.727 294.909 291.291C294.696 290.851 294.589 290.358 294.589 289.814ZM295.704 289.153V289.814C295.704 290.349 295.834 290.806 296.095 291.185C296.36 291.559 296.755 291.746 297.281 291.746C297.792 291.746 298.178 291.559 298.439 291.185C298.699 290.806 298.829 290.349 298.829 289.814V289.153C298.829 288.618 298.701 288.164 298.446 287.79C298.19 287.411 297.802 287.222 297.281 287.222C296.765 287.222 296.372 287.411 296.102 287.79C295.837 288.164 295.704 288.618 295.704 289.153ZM295.243 301L305.235 286.455H306.493L296.5 301H295.243Z" fill="black"/>
<path fill-rule="evenodd" clip-rule="evenodd" d="M119.153 30.3371C123.017 27.6161 125.542 23.1206 125.542 18.0354C125.542 9.7316 118.81 3 110.506 3C102.202 3 95.4708 9.7316 95.4708 18.0354C95.4708 23.1206 97.9952 27.6161 101.859 30.3371H97.9724L73.6011 52.8903V69.2926L97.9724 48.7897V67.9257L84.7423 104.147H102.789L111.748 82.184L122.344 104.147H138.359L125.129 67.9257V48.7897L147.411 67.9257V51.5234L122.344 30.3371H119.153Z" fill="white"/>
<path fill-rule="evenodd" clip-rule="evenodd" d="M45.5522 31.112C49.4162 28.391 51.9406 23.8955 51.9406 18.8103C51.9406 10.5065 45.209 3.7749 36.9051 3.7749C28.6013 3.7749 21.8697 10.5065 21.8697 18.8103C21.8697 23.8955 24.3941 28.391 28.2581 31.112H24.3713L0 53.6652V70.0675L24.3713 49.5646V68.7006L11.1412 104.922H29.1883L38.1471 82.9589L48.7427 104.922H64.7581L51.528 68.7006V49.5646L73.8104 68.7006V52.2983L48.7427 31.112H45.5522Z" fill="white"/>
<path fill-rule="evenodd" clip-rule="evenodd" d="M192.754 31.112C196.618 28.391 199.143 23.8955 199.143 18.8103C199.143 10.5065 192.411 3.7749 184.107 3.7749C175.803 3.7749 169.072 10.5065 169.072 18.8103C169.072 23.8955 171.596 28.391 175.46 31.112H171.573L147.202 53.6652V70.0675L171.573 49.5646V68.7006L158.343 104.922H176.39L185.349 82.9589L195.945 104.922H211.96L198.73 68.7006V49.5646L221.013 68.7006V52.2983L195.945 31.112H192.754Z" fill="white"/>
<path fill-rule="evenodd" clip-rule="evenodd" d="M266.355 30.3371C270.219 27.6161 272.744 23.1206 272.744 18.0354C272.744 9.7316 266.012 3 257.708 3C249.405 3 242.673 9.7316 242.673 18.0354C242.673 23.1206 245.197 27.6161 249.061 30.3371H245.175L220.803 52.8903V69.2926L245.175 48.7897V67.9257L231.944 104.147H249.992L258.95 82.184L269.546 104.147H285.561L272.331 67.9257V48.7897L294.614 67.9257V51.5234L269.546 30.3371H266.355Z" fill="white"/>
<path fill-rule="evenodd" clip-rule="evenodd" d="M119.153 129.318C123.017 126.597 125.542 122.102 125.542 117.016C125.542 108.713 118.81 101.981 110.506 101.981C102.202 101.981 95.4708 108.713 95.4708 117.016C95.4708 122.102 97.9952 126.597 101.859 129.318H97.9724L73.6011 151.871V168.274L97.9724 147.771V166.907L84.7423 203.128H102.789L111.748 181.165L122.344 203.128H138.359L125.129 166.907V147.771L147.411 166.907V150.504L122.344 129.318H119.153Z" fill="white"/>
<path fill-rule="evenodd" clip-rule="evenodd" d="M45.5522 130.092C49.4162 127.371 51.9406 122.876 51.9406 117.791C51.9406 109.487 45.209 102.755 36.9051 102.755C28.6013 102.755 21.8697 109.487 21.8697 117.791C21.8697 122.876 24.3941 127.371 28.2581 130.092H24.3713L0 152.646V169.048L24.3713 148.545V167.681L11.1412 203.903H29.1883L38.1471 181.939L48.7427 203.903H64.7581L51.528 167.681V148.545L73.8104 167.681V151.279L48.7427 130.092H45.5522Z" fill="white"/>
<path fill-rule="evenodd" clip-rule="evenodd" d="M192.754 130.092C196.618 127.371 199.143 122.876 199.143 117.791C199.143 109.487 192.411 102.755 184.107 102.755C175.803 102.755 169.072 109.487 169.072 117.791C169.072 122.876 171.596 127.371 175.46 130.092H171.573L147.202 152.646V169.048L171.573 148.545V167.681L158.343 203.903H176.39L185.349 181.939L195.945 203.903H211.96L198.73 167.681V148.545L221.013 167.681V151.279L195.945 130.092H192.754Z" fill="white"/>
<path fill-rule="evenodd" clip-rule="evenodd" d="M266.355 129.318C270.219 126.597 272.744 122.102 272.744 117.016C272.744 108.713 266.012 101.981 257.708 101.981C249.405 101.981 242.673 108.713 242.673 117.016C242.673 122.102 245.197 126.597 249.061 129.318H245.175L220.803 151.871V168.274L245.175 147.771V166.907L231.944 203.128H249.992L258.95 181.165L269.546 203.128H285.561L272.331 166.907V147.771L294.614 166.907V150.504L269.546 129.318H266.355Z" fill="white"/>
<path fill-rule="evenodd" clip-rule="evenodd" d="M414.153 27.3371C418.017 24.6161 420.542 20.1206 420.542 15.0354C420.542 6.7316 413.81 0 405.506 0C397.202 0 390.471 6.7316 390.471 15.0354C390.471 20.1206 392.995 24.6161 396.859 27.3371H392.972L368.601 49.8903V66.2926L392.972 45.7897V64.9257L379.742 101.147H397.789L406.748 79.184L417.344 101.147H433.359L420.129 64.9257V45.7897L442.411 64.9257V48.5234L417.344 27.3371H414.153Z" fill="white"/>
<path fill-rule="evenodd" clip-rule="evenodd" d="M340.552 28.1115C344.416 25.3905 346.941 20.895 346.941 15.8099C346.941 7.50601 340.209 0.774414 331.905 0.774414C323.601 0.774414 316.87 7.50601 316.87 15.8099C316.87 20.895 319.394 25.3905 323.258 28.1115H319.371L295 50.6647V67.067L319.371 46.5641V65.7001L306.141 101.922H324.188L333.147 79.9584L343.743 101.922H359.758L346.528 65.7001V46.5641L368.81 65.7001V49.2978L343.743 28.1115H340.552Z" fill="white"/>
<path fill-rule="evenodd" clip-rule="evenodd" d="M487.754 28.1115C491.618 25.3905 494.143 20.895 494.143 15.8099C494.143 7.50601 487.411 0.774414 479.107 0.774414C470.803 0.774414 464.072 7.50601 464.072 15.8099C464.072 20.895 466.596 25.3905 470.46 28.1115H466.573L442.202 50.6647V67.067L466.573 46.5641V65.7001L453.343 101.922H471.39L480.349 79.9584L490.945 101.922H506.96L493.73 65.7001V46.5641L516.013 65.7001V49.2978L490.945 28.1115H487.754Z" fill="white"/>
<path fill-rule="evenodd" clip-rule="evenodd" d="M561.355 27.3371C565.219 24.6161 567.744 20.1206 567.744 15.0354C567.744 6.7316 561.012 0 552.708 0C544.405 0 537.673 6.7316 537.673 15.0354C537.673 20.1206 540.197 24.6161 544.061 27.3371H540.175L515.803 49.8903V66.2926L540.175 45.7897V64.9257L526.944 101.147H544.992L553.95 79.184L564.546 101.147H580.561L567.331 64.9257V45.7897L589.614 64.9257V48.5234L564.546 27.3371H561.355Z" fill="white"/>
<path fill-rule="evenodd" clip-rule="evenodd" d="M414.153 129.495C418.017 126.774 420.542 122.279 420.542 117.194C420.542 108.89 413.81 102.158 405.506 102.158C397.202 102.158 390.471 108.89 390.471 117.194C390.471 122.279 392.995 126.774 396.859 129.495H392.972L368.601 152.048V168.451L392.972 147.948V167.084L379.742 203.306H397.789L406.748 181.342L417.344 203.306H433.359L420.129 167.084V147.948L442.411 167.084V150.682L417.344 129.495H414.153Z" fill="white"/>
<path fill-rule="evenodd" clip-rule="evenodd" d="M340.552 130.27C344.416 127.549 346.941 123.053 346.941 117.968C346.941 109.664 340.209 102.933 331.905 102.933C323.601 102.933 316.87 109.664 316.87 117.968C316.87 123.053 319.394 127.549 323.258 130.27H319.371L295 152.823V169.225L319.371 148.722V167.858L306.141 204.08H324.188L333.147 182.117L343.743 204.08H359.758L346.528 167.858V148.722L368.81 167.858V151.456L343.743 130.27H340.552Z" fill="white"/>
<path fill-rule="evenodd" clip-rule="evenodd" d="M487.754 130.27C491.618 127.549 494.143 123.053 494.143 117.968C494.143 109.664 487.411 102.933 479.107 102.933C470.803 102.933 464.072 109.664 464.072 117.968C464.072 123.053 466.596 127.549 470.46 130.27H466.573L442.202 152.823V169.225L466.573 148.722V167.858L453.343 204.08H471.39L480.349 182.117L490.945 204.08H506.96L493.73 167.858V148.722L516.013 167.858V151.456L490.945 130.27H487.754Z" fill="white"/>
<path fill-rule="evenodd" clip-rule="evenodd" d="M561.355 129.495C565.219 126.774 567.744 122.279 567.744 117.194C567.744 108.89 561.012 102.158 552.708 102.158C544.405 102.158 537.673 108.89 537.673 117.194C537.673 122.279 540.197 126.774 544.061 129.495H540.175L515.803 152.048V168.451L540.175 147.948V167.084L526.944 203.306H544.992L553.95 181.342L564.546 203.306H580.561L567.331 167.084V147.948L589.614 167.084V150.682L564.546 129.495H561.355Z" fill="white"/>
<path fill-rule="evenodd" clip-rule="evenodd" d="M300.056 95.5348C301.927 94.1877 303.149 91.9618 303.149 89.444C303.149 85.3328 299.89 82 295.869 82C291.848 82 288.589 85.3328 288.589 89.444C288.589 91.9618 289.812 94.1877 291.683 95.5348H289.8L278 106.701V114.822L289.8 104.671V114.145L283.394 132.078H292.133L296.471 121.204L301.601 132.078H309.355L302.95 114.145V104.671L313.738 114.145V106.024L301.601 95.5348H300.056Z" fill="#CF6C5D"/>
</svg>
