<svg width="443" height="248" viewBox="0 0 443 248" fill="none" xmlns="http://www.w3.org/2000/svg">
<path fill-rule="evenodd" clip-rule="evenodd" d="M130.924 62.7629C139.795 56.5156 145.591 46.1945 145.591 34.5197C145.591 15.455 130.136 0 111.071 0C92.0067 0 76.5517 15.455 76.5517 34.5197C76.5517 46.1945 82.3474 56.5156 91.2186 62.7629H82.2953L26.3413 114.543V152.2L82.2953 105.128V149.062L51.9203 232.223H93.3544L113.923 181.798L138.249 232.223H175.019L144.644 149.062V105.128L195.802 149.062V111.404L138.249 62.7629H130.924Z" fill="#CF6C5D"/>
<path fill-rule="evenodd" clip-rule="evenodd" d="M192.754 172.99C196.618 170.269 199.143 165.773 199.143 160.688C199.143 152.384 192.411 145.653 184.107 145.653C175.803 145.653 169.072 152.384 169.072 160.688C169.072 165.773 171.596 170.269 175.46 172.99H171.573L147.202 195.543V211.945L171.573 191.443V210.579L158.343 246.8H176.39L185.349 224.837L195.945 246.8H211.96L198.73 210.579V191.443L221.013 210.579V194.176L195.945 172.99H192.754Z" fill="white"/>
<path fill-rule="evenodd" clip-rule="evenodd" d="M266.552 174.112C270.416 171.39 272.941 166.895 272.941 161.81C272.941 153.506 266.209 146.774 257.905 146.774C249.601 146.774 242.87 153.506 242.87 161.81C242.87 166.895 245.394 171.39 249.258 174.112H245.371L221 196.665V213.067L245.371 192.564V211.7L232.141 247.922H250.188L259.147 225.958L269.743 247.922H285.758L272.528 211.7V192.564L294.81 211.7V195.298L269.743 174.112H266.552Z" fill="white"/>
<path fill-rule="evenodd" clip-rule="evenodd" d="M413.754 173.337C417.618 170.616 420.143 166.121 420.143 161.035C420.143 152.732 413.411 146 405.107 146C396.803 146 390.072 152.732 390.072 161.035C390.072 166.121 392.596 170.616 396.46 173.337H392.573L368.202 195.89V212.293L392.573 191.79V210.926L379.343 247.147H397.39L406.349 225.184L416.945 247.147H432.96L419.73 210.926V191.79L442.013 210.926V194.523L416.945 173.337H413.754Z" fill="white"/>
<path fill-rule="evenodd" clip-rule="evenodd" d="M340.153 174.112C344.017 171.39 346.542 166.895 346.542 161.81C346.542 153.506 339.81 146.774 331.506 146.774C323.202 146.774 316.471 153.506 316.471 161.81C316.471 166.895 318.995 171.39 322.859 174.112H318.972L294.601 196.665V213.067L318.972 192.564V211.7L305.742 247.922H323.789L332.748 225.958L343.344 247.922H359.359L346.129 211.7V192.564L368.411 211.7V195.298L343.344 174.112H340.153Z" fill="white"/>
<path fill-rule="evenodd" clip-rule="evenodd" d="M45.5522 173.764C49.4162 171.043 51.9406 166.548 51.9406 161.463C51.9406 153.159 45.209 146.427 36.9051 146.427C28.6013 146.427 21.8697 153.159 21.8697 161.463C21.8697 166.548 24.3941 171.043 28.2581 173.764H24.3713L0 196.318V212.72L24.3713 192.217V211.353L11.1412 247.575H29.1883L38.1471 225.611L48.7427 247.575H64.7581L51.528 211.353V192.217L73.8104 211.353V194.951L48.7427 173.764H45.5522Z" fill="white"/>
<path fill-rule="evenodd" clip-rule="evenodd" d="M119.153 172.99C123.017 170.269 125.542 165.773 125.542 160.688C125.542 152.384 118.81 145.653 110.506 145.653C102.202 145.653 95.4708 152.384 95.4708 160.688C95.4708 165.773 97.9952 170.269 101.859 172.99H97.9724L73.6011 195.543V211.945L97.9724 191.443V210.579L84.7423 246.8H102.789L111.748 224.837L122.344 246.8H138.359L125.129 210.579V191.443L147.411 210.579V194.176L122.344 172.99H119.153Z" fill="white"/>
<path d="M259.438 51.1648V47.532L268.547 33.1818H271.679V38.2102H269.825L264.083 47.2976V47.468H277.027V51.1648H259.438ZM269.911 55V50.0568L269.996 48.4482V33.1818H274.321V55H269.911ZM290.338 42.2905V45.8913H280.388V42.2905H290.338ZM302.537 55.2983C301.414 55.2912 300.331 55.103 299.287 54.7337C298.25 54.3643 297.32 53.7642 296.496 52.9332C295.672 52.1023 295.019 51.0014 294.536 49.6307C294.06 48.2599 293.822 46.5767 293.822 44.581C293.829 42.7486 294.039 41.1115 294.451 39.6697C294.87 38.2209 295.466 36.9922 296.24 35.9837C297.022 34.9751 297.956 34.2081 299.042 33.6825C300.129 33.1499 301.347 32.8835 302.696 32.8835C304.152 32.8835 305.438 33.1676 306.553 33.7358C307.668 34.2969 308.563 35.0604 309.238 36.0263C309.919 36.9922 310.331 38.0753 310.473 39.2756H305.924C305.747 38.5156 305.374 37.919 304.806 37.4858C304.238 37.0526 303.534 36.8359 302.696 36.8359C301.276 36.8359 300.196 37.4538 299.458 38.6896C298.726 39.9254 298.353 41.6051 298.339 43.7287H298.488C298.815 43.0824 299.255 42.532 299.809 42.0774C300.37 41.6158 301.006 41.2642 301.716 41.0227C302.434 40.7741 303.19 40.6499 303.985 40.6499C305.278 40.6499 306.429 40.9553 307.437 41.5661C308.446 42.1697 309.241 43.0007 309.824 44.0589C310.406 45.1172 310.697 46.3281 310.697 47.6918C310.697 49.169 310.353 50.483 309.664 51.6335C308.982 52.7841 308.027 53.6861 306.798 54.3395C305.576 54.9858 304.156 55.3054 302.537 55.2983ZM302.515 51.6761C303.225 51.6761 303.861 51.5057 304.422 51.1648C304.983 50.8239 305.424 50.3622 305.743 49.7798C306.063 49.1974 306.223 48.544 306.223 47.8196C306.223 47.0952 306.063 46.4453 305.743 45.87C305.431 45.2947 304.998 44.8366 304.444 44.4957C303.89 44.1548 303.257 43.9844 302.547 43.9844C302.015 43.9844 301.521 44.0838 301.066 44.2827C300.619 44.4815 300.225 44.7585 299.884 45.1136C299.55 45.4687 299.287 45.8807 299.096 46.3494C298.904 46.8111 298.808 47.3047 298.808 47.8303C298.808 48.5334 298.968 49.1761 299.287 49.7585C299.614 50.3409 300.054 50.8061 300.608 51.1541C301.169 51.5021 301.805 51.6761 302.515 51.6761Z" fill="black"/>
<path d="M259.271 85.7637V84.6841L265.756 74.3432H266.551V76.1543H265.962L260.756 84.4782V84.5705H269.257V85.7637H259.271ZM266.061 88.8887V85.4228V84.9256V74.3432H267.325V88.8887H266.061ZM271.791 85.7637V84.6841L278.275 74.3432H279.071V76.1543H278.481L273.275 84.4782V84.5705H281.777V85.7637H271.791ZM278.581 88.8887V85.4228V84.9256V74.3432H279.845V88.8887H278.581ZM285.033 88.9952C284.754 88.9952 284.512 88.8958 284.309 88.6969C284.11 88.4933 284.01 88.2518 284.01 87.9725C284.01 87.6884 284.11 87.4469 284.309 87.248C284.512 87.0492 284.754 86.9498 285.033 86.9498C285.317 86.9498 285.559 87.0492 285.757 87.248C285.956 87.4469 286.056 87.6884 286.056 87.9725C286.056 88.1571 286.008 88.3276 285.914 88.4838C285.824 88.6401 285.701 88.7656 285.544 88.8603C285.393 88.9502 285.222 88.9952 285.033 88.9952ZM293.405 89.0875C292.595 89.0875 291.871 88.9242 291.232 88.5975C290.597 88.266 290.09 87.8115 289.712 87.2338C289.338 86.6562 289.139 85.9957 289.115 85.2523H290.401C290.443 86.0241 290.746 86.6586 291.31 87.1557C291.873 87.6481 292.571 87.8944 293.405 87.8944C294.054 87.8944 294.631 87.7405 295.138 87.4327C295.644 87.1202 296.04 86.6941 296.324 86.1543C296.613 85.6098 296.757 84.9966 296.757 84.3148C296.752 83.6046 296.598 82.9796 296.295 82.4398C295.992 81.8953 295.58 81.4692 295.06 81.1614C294.544 80.8536 293.964 80.6998 293.32 80.6998C292.832 80.695 292.354 80.7755 291.885 80.9412C291.416 81.1069 291.026 81.32 290.713 81.5804L289.385 81.41L290.259 74.3432H297.446V75.5364H291.374L290.791 80.4015H290.862C291.184 80.1316 291.575 79.9114 292.034 79.7409C292.498 79.5705 292.988 79.4853 293.504 79.4853C294.361 79.4853 295.131 79.6912 295.812 80.1032C296.499 80.5151 297.041 81.0833 297.439 81.8077C297.841 82.5274 298.043 83.356 298.043 84.2935C298.043 85.2121 297.841 86.0336 297.439 86.758C297.041 87.4777 296.492 88.0459 295.791 88.4625C295.095 88.8792 294.3 89.0875 293.405 89.0875ZM308.423 86.1898V85.5293C308.423 84.9848 308.531 84.4947 308.749 84.0591C308.967 83.6188 309.277 83.2708 309.68 83.0151C310.082 82.7594 310.56 82.6316 311.114 82.6316C311.673 82.6316 312.151 82.7594 312.549 83.0151C312.947 83.2708 313.252 83.6188 313.465 84.0591C313.678 84.4947 313.785 84.9848 313.785 85.5293V86.1898C313.785 86.7343 313.676 87.2244 313.458 87.66C313.245 88.0956 312.94 88.4436 312.542 88.704C312.144 88.9597 311.668 89.0875 311.114 89.0875C310.551 89.0875 310.068 88.9597 309.665 88.704C309.268 88.4436 308.96 88.0956 308.742 87.66C308.529 87.2244 308.423 86.7343 308.423 86.1898ZM309.538 85.5293V86.1898C309.538 86.7248 309.668 87.1818 309.928 87.5605C310.193 87.9346 310.589 88.1216 311.114 88.1216C311.626 88.1216 312.012 87.9346 312.272 87.5605C312.532 87.1818 312.663 86.7248 312.663 86.1898V85.5293C312.663 84.9943 312.535 84.5397 312.279 84.1657C312.023 83.7869 311.635 83.5975 311.114 83.5975C310.598 83.5975 310.205 83.7869 309.935 84.1657C309.67 84.5397 309.538 84.9943 309.538 85.5293ZM301.093 77.7026V77.0421C301.093 76.4976 301.202 76.0075 301.42 75.5719C301.638 75.1363 301.948 74.7907 302.35 74.535C302.753 74.2746 303.231 74.1444 303.785 74.1444C304.344 74.1444 304.822 74.2746 305.219 74.535C305.617 74.7907 305.923 75.1363 306.136 75.5719C306.349 76.0075 306.455 76.4976 306.455 77.0421V77.7026C306.455 78.2471 306.346 78.7395 306.129 79.1799C305.915 79.6155 305.61 79.9611 305.212 80.2168C304.815 80.4725 304.339 80.6003 303.785 80.6003C303.221 80.6003 302.738 80.4725 302.336 80.2168C301.938 79.9611 301.63 79.6155 301.413 79.1799C301.2 78.7395 301.093 78.2471 301.093 77.7026ZM302.208 77.0421V77.7026C302.208 78.2376 302.338 78.6945 302.599 79.0733C302.864 79.4474 303.259 79.6344 303.785 79.6344C304.296 79.6344 304.682 79.4474 304.942 79.0733C305.203 78.6945 305.333 78.2376 305.333 77.7026V77.0421C305.333 76.507 305.205 76.0525 304.95 75.6784C304.694 75.2997 304.306 75.1103 303.785 75.1103C303.269 75.1103 302.876 75.2997 302.606 75.6784C302.341 76.0525 302.208 76.507 302.208 77.0421ZM301.746 88.8887L311.739 74.3432H312.996L303.004 88.8887H301.746Z" fill="black"/>
</svg>
