<svg width="64" height="111" viewBox="0 0 64 111" fill="none" xmlns="http://www.w3.org/2000/svg">
<path fill-rule="evenodd" clip-rule="evenodd" d="M22.0505 9.84913C23.412 8.86877 24.3014 7.24913 24.3014 5.41706C24.3014 2.4253 21.9295 0 19.0037 0C16.0778 0 13.7059 2.4253 13.7059 5.41706C13.7059 7.24913 14.5954 8.86877 15.9568 9.84913H14.5872L6 17.9747V23.8842L14.5872 16.4973V23.3918L9.9256 36.442H16.2845L19.4411 28.5288L23.1745 36.442H28.8175L24.1559 23.3918V16.4973L32.0071 23.3918V17.4823L23.1745 9.84913H22.0505Z" fill="#CF6C5D"/>
<path d="M16.3232 74.4672C14.4908 74.4601 12.9141 74.0091 11.593 73.1142C10.2791 72.2193 9.26705 70.9232 8.55682 69.2257C7.85369 67.5283 7.50568 65.4864 7.51278 63.1C7.51278 60.7207 7.86435 58.693 8.56747 57.0169C9.2777 55.3408 10.2898 54.0659 11.6037 53.1923C12.9247 52.3117 14.4979 51.8713 16.3232 51.8713C18.1484 51.8713 19.718 52.3117 21.032 53.1923C22.353 54.073 23.3686 55.3514 24.0788 57.0276C24.7891 58.6966 25.1406 60.7207 25.1335 63.1C25.1335 65.4935 24.7784 67.5389 24.0682 69.2364C23.3651 70.9338 22.3565 72.23 21.0426 73.1249C19.7287 74.0198 18.1555 74.4672 16.3232 74.4672ZM16.3232 70.6426C17.5732 70.6426 18.571 70.0141 19.3168 68.757C20.0625 67.4999 20.4318 65.6142 20.4247 63.1C20.4247 61.4452 20.2543 60.0673 19.9134 58.9665C19.5795 57.8656 19.1037 57.0382 18.4858 56.4842C17.875 55.9303 17.1541 55.6533 16.3232 55.6533C15.0803 55.6533 14.0859 56.2747 13.3402 57.5176C12.5945 58.7605 12.218 60.6213 12.2109 63.1C12.2109 64.7761 12.3778 66.1753 12.7116 67.2975C13.0526 68.4125 13.532 69.2506 14.1499 69.8117C14.7678 70.3656 15.4922 70.6426 16.3232 70.6426Z" fill="black"/>
<path d="M1.61932 109.988V109.015L6.37074 103.674C6.991 102.973 7.49053 102.374 7.86932 101.877C8.24811 101.38 8.52273 100.921 8.69318 100.499C8.86837 100.078 8.95597 99.6398 8.95597 99.1852C8.95597 98.6313 8.82576 98.1483 8.56534 97.7364C8.30966 97.3197 7.95691 96.9954 7.5071 96.7634C7.05729 96.5314 6.55066 96.4153 5.98722 96.4153C5.39063 96.4153 4.86742 96.5432 4.41761 96.7989C3.97254 97.0546 3.62689 97.4049 3.38068 97.85C3.13447 98.2951 3.01136 98.8064 3.01136 99.3841H1.74006C1.74006 98.5792 1.92472 97.8666 2.29403 97.2463C2.66809 96.6213 3.17708 96.1313 3.82102 95.7761C4.4697 95.421 5.2036 95.2435 6.02273 95.2435C6.83239 95.2435 7.55208 95.4187 8.18182 95.769C8.81155 96.1147 9.30634 96.5858 9.66619 97.1824C10.026 97.779 10.206 98.4466 10.206 99.1852C10.206 99.7203 10.1113 100.239 9.92188 100.741C9.73722 101.243 9.41761 101.801 8.96307 102.417C8.50852 103.032 7.87879 103.785 7.07386 104.675L3.46591 108.702V108.795H10.6605V109.988H1.61932ZM14.8846 110.094C14.6052 110.094 14.3638 109.995 14.1602 109.796C13.9613 109.592 13.8619 109.351 13.8619 109.072C13.8619 108.788 13.9613 108.546 14.1602 108.347C14.3638 108.148 14.6052 108.049 14.8846 108.049C15.1687 108.049 15.4102 108.148 15.609 108.347C15.8079 108.546 15.9073 108.788 15.9073 109.072C15.9073 109.256 15.86 109.427 15.7653 109.583C15.6753 109.739 15.5522 109.865 15.396 109.959C15.2444 110.049 15.074 110.094 14.8846 110.094ZM19.4212 109.988L26.0476 96.7278V96.6355H18.4126V95.4423H27.4396V96.6923L20.8203 109.988H19.4212ZM37.6296 107.289V106.628C37.6296 106.084 37.7385 105.594 37.9563 105.158C38.1741 104.718 38.4843 104.37 38.8867 104.114C39.2892 103.859 39.7674 103.731 40.3214 103.731C40.8801 103.731 41.3583 103.859 41.756 104.114C42.1538 104.37 42.4592 104.718 42.6722 105.158C42.8853 105.594 42.9918 106.084 42.9918 106.628V107.289C42.9918 107.833 42.8829 108.323 42.6651 108.759C42.4521 109.195 42.1467 109.543 41.7489 109.803C41.3512 110.059 40.8754 110.187 40.3214 110.187C39.7579 110.187 39.275 110.059 38.8725 109.803C38.4748 109.543 38.167 109.195 37.9492 108.759C37.7362 108.323 37.6296 107.833 37.6296 107.289ZM38.7447 106.628V107.289C38.7447 107.824 38.8749 108.281 39.1353 108.66C39.4005 109.034 39.7958 109.221 40.3214 109.221C40.8327 109.221 41.2186 109.034 41.479 108.66C41.7395 108.281 41.8697 107.824 41.8697 107.289V106.628C41.8697 106.093 41.7418 105.639 41.4862 105.265C41.2305 104.886 40.8422 104.697 40.3214 104.697C39.8053 104.697 39.4123 104.886 39.1424 105.265C38.8772 105.639 38.7447 106.093 38.7447 106.628ZM30.3001 98.8017V98.1412C30.3001 97.5967 30.409 97.1066 30.6268 96.671C30.8446 96.2354 31.1547 95.8898 31.5572 95.6341C31.9596 95.3737 32.4379 95.2435 32.9918 95.2435C33.5505 95.2435 34.0288 95.3737 34.4265 95.6341C34.8242 95.8898 35.1296 96.2354 35.3427 96.671C35.5558 97.1066 35.6623 97.5967 35.6623 98.1412V98.8017C35.6623 99.3462 35.5534 99.8386 35.3356 100.279C35.1225 100.715 34.8171 101.06 34.4194 101.316C34.0217 101.572 33.5458 101.699 32.9918 101.699C32.4284 101.699 31.9454 101.572 31.543 101.316C31.1452 101.06 30.8375 100.715 30.6197 100.279C30.4066 99.8386 30.3001 99.3462 30.3001 98.8017ZM31.4151 98.1412V98.8017C31.4151 99.3368 31.5453 99.7937 31.8058 100.172C32.0709 100.547 32.4663 100.734 32.9918 100.734C33.5032 100.734 33.8891 100.547 34.1495 100.172C34.4099 99.7937 34.5401 99.3368 34.5401 98.8017V98.1412C34.5401 97.6062 34.4123 97.1516 34.1566 96.7776C33.9009 96.3988 33.5127 96.2094 32.9918 96.2094C32.4757 96.2094 32.0827 96.3988 31.8129 96.7776C31.5477 97.1516 31.4151 97.6062 31.4151 98.1412ZM30.9535 109.988L40.9464 95.4423H42.2035L32.2106 109.988H30.9535Z" fill="black"/>
</svg>
